<svg width="34" height="42" viewBox="0 0 34 42" fill="none" xmlns="http://www.w3.org/2000/svg">
<g filter="url(#filter0_d)">
<path d="M8.20625 17.933L23.9322 33.6155C24.4475 34.129 25.2817 34.1282 25.7961 33.6128C26.31 33.0976 26.3087 32.2629 25.7934 31.749L11.0035 16.9999L25.7939 2.2509C26.3092 1.73692 26.3105 0.902791 25.7966 0.387481C25.5387 0.129161 25.2009 2.3894e-07 24.8631 2.3894e-07C24.5262 2.3894e-07 24.1897 0.128297 23.9323 0.384824L8.20625 16.0669C7.95809 16.3138 7.81883 16.6498 7.81883 16.9999C7.81883 17.35 7.95848 17.6856 8.20625 17.933Z" fill="#4F4F4F"/>
</g>
<defs>
<filter id="filter0_d" x="-4" y="0" width="42" height="42" filterUnits="userSpaceOnUse" color-interpolation-filters="sRGB">
<feFlood flood-opacity="0" result="BackgroundImageFix"/>
<feColorMatrix in="SourceAlpha" type="matrix" values="0 0 0 0 0 0 0 0 0 0 0 0 0 0 0 0 0 0 127 0"/>
<feOffset dy="4"/>
<feGaussianBlur stdDeviation="2"/>
<feColorMatrix type="matrix" values="0 0 0 0 0 0 0 0 0 0 0 0 0 0 0 0 0 0 0.25 0"/>
<feBlend mode="normal" in2="BackgroundImageFix" result="effect1_dropShadow"/>
<feBlend mode="normal" in="SourceGraphic" in2="effect1_dropShadow" result="shape"/>
</filter>
</defs>
</svg>
