<svg width="44" height="40" viewBox="0 0 44 40" fill="none" xmlns="http://www.w3.org/2000/svg">
<g clip-path="url(#clip0)">
<path d="M35.7813 4.99229H28.4712V3.74625C28.4712 1.68171 26.6861 0.00811768 24.4839 0.00811768H19.1674C16.9652 0.00811768 15.1801 1.68171 15.1801 3.74625V4.99229H7.86995C6.03486 4.99229 4.54716 6.38701 4.54716 8.10741V10.5995C4.54716 11.2877 5.14219 11.8455 5.87628 11.8455H37.775C38.5091 11.8455 39.1041 11.2877 39.1041 10.5995V8.10741C39.1041 6.38701 37.6164 4.99229 35.7813 4.99229ZM17.8383 3.74625C17.8383 3.05937 18.4347 2.50021 19.1674 2.50021H24.4839C25.2166 2.50021 25.813 3.05937 25.813 3.74625V4.99229H17.8383V3.74625Z" fill="#767676"/>
<path d="M7.06949 14.3376C6.83233 14.3376 6.64334 14.5234 6.65464 14.7455L7.75116 36.321C7.8525 38.3177 9.60195 39.8815 11.7335 39.8815H31.9178C34.0493 39.8815 35.7988 38.3177 35.9001 36.321L36.9966 14.7455C37.0079 14.5234 36.819 14.3376 36.5818 14.3376H7.06949ZM27.1421 17.4527C27.1421 16.7643 27.7369 16.2067 28.4712 16.2067C29.2055 16.2067 29.8003 16.7643 29.8003 17.4527V33.6513C29.8003 34.3397 29.2055 34.8973 28.4712 34.8973C27.7369 34.8973 27.1421 34.3397 27.1421 33.6513V17.4527ZM20.4965 17.4527C20.4965 16.7643 21.0913 16.2067 21.8256 16.2067C22.56 16.2067 23.1548 16.7643 23.1548 17.4527V33.6513C23.1548 34.3397 22.56 34.8973 21.8256 34.8973C21.0913 34.8973 20.4965 34.3397 20.4965 33.6513V17.4527ZM13.851 17.4527C13.851 16.7643 14.4457 16.2067 15.1801 16.2067C15.9144 16.2067 16.5092 16.7643 16.5092 17.4527V33.6513C16.5092 34.3397 15.9144 34.8973 15.1801 34.8973C14.4457 34.8973 13.851 34.3397 13.851 33.6513V17.4527Z" fill="#767676"/>
</g>
<defs>
<clipPath id="clip0">
<rect width="42.5316" height="39.8734" fill="white" transform="translate(0.559814 0.00811768)"/>
</clipPath>
</defs>
</svg>
